<?xml version="1.0" encoding="UTF-8"?>
<svg version="1.1" xmlns="http://www.w3.org/2000/svg" width="389" height="389">
<path d="M0 0 C5.14724285 4.81590836 5.99984632 9.08109534 6.75 15.9375 C6.86214844 16.78634766 6.97429687 17.63519531 7.08984375 18.50976562 C11.43151888 53.06439184 8.2173332 87.59785809 5.36648941 122.11884308 C5.05925759 125.85189726 4.75628345 129.58527362 4.4546814 133.31878662 C3.00842213 151.2158142 1.51961224 169.10905604 0 187 C-0.10190643 188.20011971 -0.20381287 189.40023941 -0.30880737 190.63672638 C-1.63898723 206.27728112 -3.0066402 221.91419522 -4.41218948 237.54815292 C-4.6823445 240.56738262 -4.948621 243.58693071 -5.21383667 246.6065979 C-14.64884707 353.64884707 -14.64884707 353.64884707 -28 367 C-32.20405076 367.57327965 -34.82122592 366.99515896 -38.23828125 364.45703125 C-45.08275794 358.79629998 -51.3521447 352.8634533 -57 346 C-60.465825 351.08058437 -63.76208708 356.23240469 -66.9375 361.5 C-76.88079848 377.70529943 -76.88079848 377.70529943 -83 380 C-86.46800976 380.58890732 -88.81077751 380.65192317 -91.9453125 378.93359375 C-99.43431703 373.54444735 -105.64205162 366.59281773 -111.5546875 359.56640625 C-112.93500379 357.88496233 -112.93500379 357.88496233 -115 357 C-115.4021875 357.89912109 -115.4021875 357.89912109 -115.8125 358.81640625 C-117.01705017 361.03135212 -118.14541655 362.25678375 -120 363.9375 C-123.39235291 367.20263967 -126.19525145 370.79574395 -129 374.5625 C-132.96824793 379.86176442 -136.95144403 384.97572202 -143 388 C-147.7968502 388.47968502 -149.99513685 388.59109597 -154.1875 386.125 C-162.37253809 378.11598424 -165.26312396 364.51897401 -169 354 C-173.36249443 353.72811649 -175.56162752 353.86282896 -178.875 356.75 C-207.52306571 380.51871556 -207.52306571 380.51871556 -220.76953125 381.5234375 C-224.24600454 380.70759263 -226.62201152 378.56227971 -229 376 C-230.51049805 372.71484375 -230.51049805 372.71484375 -231.57421875 368.9375 C-231.77262863 368.2470459 -231.97103851 367.5565918 -232.17546082 366.84521484 C-234.67140412 357.97118732 -236.7405911 348.9802721 -238.8125 340 C-239.22276174 338.24206009 -239.63356632 336.48424678 -240.04492188 334.7265625 C-241.03618339 330.48580166 -242.02018278 326.24341895 -243 322 C-244.09699219 322.71027344 -245.19398438 323.42054688 -246.32421875 324.15234375 C-247.77838675 325.08113492 -249.23282828 326.00949794 -250.6875 326.9375 C-251.40873047 327.40607422 -252.12996094 327.87464844 -252.87304688 328.35742188 C-259.85515755 332.78898984 -259.85515755 332.78898984 -264 333 C-267.81826533 331.3128595 -269.48746874 329.83900943 -271 326 C-271.45484936 323.56224528 -271.80029883 321.20948095 -272.0625 318.75 C-272.14483887 318.00508301 -272.22717773 317.26016602 -272.31201172 316.49267578 C-273.63644668 303.0621185 -273.69458685 289.4853562 -274 276 C-274.74185547 276.1436499 -275.48371094 276.2872998 -276.24804688 276.43530273 C-277.22837891 276.62036377 -278.20871094 276.8054248 -279.21875 276.99609375 C-280.18748047 277.18099365 -281.15621094 277.36589355 -282.15429688 277.55639648 C-286.29820233 278.20237077 -288.95444358 278.22811534 -293 277 C-296.47603962 271.13847204 -296.34639525 265.9876645 -295.99609375 259.31640625 C-295.94464706 258.17780655 -295.89320038 257.03920685 -295.8401947 255.86610413 C-294.74975105 235.34574446 -292.46165006 214.88660915 -290.41229248 194.44561768 C-289.94286532 189.73766706 -289.48337766 185.02876763 -289.02396488 180.31983089 C-288.5774679 175.75282627 -288.12587401 171.18633716 -287.67263603 166.61999702 C-287.45805428 164.45413604 -287.2447678 162.28814629 -287.03285408 160.12202263 C-286.73662005 157.10418109 -286.43378248 154.08707227 -286.12915039 151.07006836 C-286.0444046 150.194664 -285.95965881 149.31925964 -285.87234497 148.41732788 C-284.27648502 132.86002104 -284.27648502 132.86002104 -280.8125 127.8125 C-278 126 -278 126 -274.3125 126 C-271 127 -271 127 -269 130 C-267.9960042 139.68968928 -269.48565081 149.75441285 -270.45100212 159.41314316 C-270.72188164 162.12514981 -270.9847279 164.8378389 -271.2457428 167.55081177 C-271.8027779 173.32622204 -272.36942005 179.10066706 -272.9375 184.875 C-273.68314172 192.45502629 -274.42423662 200.03545467 -275.15234375 207.6171875 C-275.23957073 208.52422173 -275.32679771 209.43125595 -275.41666794 210.36577606 C-276.7094937 223.90406233 -277.70618111 237.39741369 -278 251 C-276.89744873 251.03834961 -275.79489746 251.07669922 -274.65893555 251.11621094 C-273.38961182 251.16036133 -272.12028809 251.20451172 -270.8125 251.25 C-270.07491455 251.26579102 -269.3373291 251.28158203 -268.57739258 251.29785156 C-265.33918123 251.46402581 -262.9668771 252.01638527 -260.0625 253.453125 C-256.96587074 257.27699296 -257.2177976 260.70273821 -257.1875 265.5 C-257.16308838 266.44311035 -257.13867676 267.3862207 -257.11352539 268.35791016 C-257.04269862 271.57235594 -257.01652103 274.78482396 -257 278 C-256.99162109 279.24491211 -256.98324219 280.48982422 -256.97460938 281.77246094 C-256.930201 289.84872888 -256.94230049 297.92384379 -257 306 C-256.39816895 305.92056152 -255.79633789 305.84112305 -255.17626953 305.75927734 C-253.9791333 305.61159912 -253.9791333 305.61159912 -252.7578125 305.4609375 C-251.97035645 305.36087402 -251.18290039 305.26081055 -250.37158203 305.15771484 C-244.43724229 304.76306964 -239.32012869 306.73611995 -234.70092773 310.4050293 C-229.67467558 315.11817776 -227.09017458 321.6151169 -225.0625 328.0625 C-224.81870605 328.81547363 -224.57491211 329.56844727 -224.32373047 330.34423828 C-222.22780427 336.96640203 -220.39933159 343.6604972 -218.625 350.375 C-218.23066772 351.86398804 -218.23066772 351.86398804 -217.82836914 353.38305664 C-217.58852295 354.31625732 -217.34867676 355.24945801 -217.1015625 356.2109375 C-216.78179443 357.45302979 -216.78179443 357.45302979 -216.45556641 358.72021484 C-216 361 -216 361 -216 365 C-205.69143044 359.81438218 -197.85382935 353.52260516 -189.60009766 345.51269531 C-175.88524082 332.54698689 -175.88524082 332.54698689 -168.5 332.625 C-167.7678125 332.61726563 -167.035625 332.60953125 -166.28125 332.6015625 C-162.41135367 333.27746905 -159.82659395 334.92002801 -157.4453125 338.03125 C-152.65734046 346.98390777 -149.34862297 356.43958234 -146 366 C-141.44394485 366 -137.12050284 360.01711268 -134 357 C-132.16592532 355.01308576 -130.40486904 352.98392576 -128.65625 350.921875 C-126.93429888 348.9237619 -125.15402766 347.01334616 -123.3125 345.125 C-122.77238281 344.57070313 -122.23226562 344.01640625 -121.67578125 343.4453125 C-118.72205336 340.89780826 -116.52010701 340.04815806 -112.625 339.6875 C-106.66172841 340.20157514 -103.41818984 342.31390652 -99.5 346.6875 C-96.17878493 350.67443746 -93.04827344 354.80164538 -90 359 C-86.82475393 358.73539616 -85.344336 358.344336 -83.0625 356.0625 C-81.34822879 353.51706699 -79.79473409 350.96061558 -78.25 348.3125 C-68.64815415 332.11544689 -68.64815415 332.11544689 -61 330 C-54.68092799 329.74723712 -50.30847506 332.93220309 -45.0625 336.2109375 C-42.79111415 337.53784403 -40.71251646 338.6032048 -38.30859375 339.61181641 C-37.21675781 340.06991699 -36.12492187 340.52801758 -35 341 C-27.79780387 300.29562682 -22.59864663 259.42113754 -19.18493652 218.22698975 C-19.01694064 216.20399768 -18.84511093 214.1813249 -18.67285156 212.15869141 C-17.71063557 200.70767317 -17.0208971 189.27294401 -16.6484375 177.7890625 C-15.87863569 154.8594904 -14.18146331 132.32835341 -11.12011719 109.58129883 C-8.4745284 89.9204849 -7.85906381 70.77297624 -7.9375 50.9375 C-7.94252909 48.70247497 -7.94708948 46.46744883 -7.95117188 44.23242188 C-7.96205649 38.82158996 -7.97868108 33.41080035 -8 28 C-8.95958988 29.09231181 -9.91529217 30.18803951 -10.86938477 31.28515625 C-11.40201431 31.89496338 -11.93464386 32.50477051 -12.4834137 33.13305664 C-14.72239397 35.88927918 -16.33261665 38.84545509 -17.9375 42 C-18.54464844 43.155 -19.15179688 44.31 -19.77734375 45.5 C-21.62140469 49.15901655 -23.32809714 52.87478651 -25.0390625 56.59765625 C-29.85912664 67.03320521 -35.17875994 77.21845444 -40.4375 87.4375 C-41.46574649 89.44062603 -42.49374301 91.44388039 -43.52148438 93.44726562 C-46.01144841 98.29965763 -48.50447308 103.15046678 -51 108 C-52.73429001 107.7032023 -54.4676793 107.40113896 -56.20068359 107.09692383 C-57.16606049 106.92929031 -58.13143738 106.7616568 -59.12606812 106.58894348 C-63.45197178 105.70245317 -67.48630226 104.19970074 -71.625 102.6875 C-107.89819378 90.22121778 -149.87466279 86.70172546 -187.93408203 89.77294922 C-211.59691133 91.52533266 -211.59691133 91.52533266 -220.37182617 85.32373047 C-229.27011633 77.45620369 -233.613442 63.42737587 -238 52.625 C-238.58897592 51.19495477 -239.17881637 49.76526529 -239.76953125 48.3359375 C-241.18961691 44.89464343 -242.59815432 41.44877144 -244 38 C-246.2435495 38.84411789 -246.2435495 38.84411789 -246.94287109 41.37573242 C-250.18313528 52.53949394 -251.90480735 63.83410636 -253.625 75.3125 C-254.07409552 78.26477072 -254.52580435 81.21661042 -254.9805603 84.16801453 C-255.26037351 85.9884156 -255.53669151 87.80935897 -255.80874634 89.63093567 C-258.42415292 106.81636839 -258.42415292 106.81636839 -263 111 C-265.4375 112.125 -265.4375 112.125 -268 112 C-270.88882396 110.3950978 -271.64685452 109.89049765 -273 107 C-274.21262607 96.36800829 -272.04826423 85.93130472 -270.04296875 75.54296875 C-269.73534841 73.90319325 -269.42867048 72.26324071 -269.12287903 70.62312317 C-268.48419467 67.21213964 -267.83715705 63.80289183 -267.18334961 60.39477539 C-266.34993537 56.04897689 -265.53338614 51.7002238 -264.72251415 47.35016918 C-264.09190236 43.97326548 -263.45463869 40.59764495 -262.81517982 37.22240639 C-262.51190275 35.61967636 -262.21012099 34.01666256 -261.90993309 32.41335106 C-257.95712073 11.37650375 -257.95712073 11.37650375 -254.25 6.875 C-250.57602864 5.44623336 -248.75122035 5.72839988 -245 7 C-233.90429598 16.79177428 -229.20787958 35.23711728 -224.19506836 48.82495117 C-219.67230972 63.11979338 -219.67230972 63.11979338 -210.11303711 73.7121582 C-204.68097908 75.79002488 -198.86858567 75.64882887 -193.125 75.84375 C-191.23272171 75.92489296 -191.23272171 75.92489296 -189.30221558 76.00767517 C-186.60125718 76.12273518 -183.90055557 76.2332983 -181.19915771 76.33639526 C-174.85816411 76.57989021 -168.51925023 76.87046985 -162.18014145 77.15829277 C-160.07188297 77.25383508 -157.96357069 77.34812501 -155.85525513 77.44239807 C-129.567778 78.627909 -103.84949069 80.04970046 -78.3125 86.75 C-72.1566103 88.32153179 -66.88088296 89.44425217 -61.046875 86.51953125 C-57.09479236 83.25146291 -55.34779522 79.80415186 -53.125 75.25 C-52.69429199 74.40018555 -52.26358398 73.55037109 -51.81982422 72.67480469 C-50.53104362 70.12394408 -49.26341091 67.5635015 -48 65 C-47.33433452 63.66616654 -46.66775222 62.33279 -46 61 C-45.05657616 59.11486452 -44.11462817 57.22908788 -43.17797852 55.34057617 C-39.22399594 47.38466617 -35.09295938 39.52075817 -30.9609375 31.65625 C-29.10685234 28.12716068 -27.27664053 24.5881696 -25.4765625 21.03125 C-16.79913323 3.99945827 -16.79913323 3.99945827 -9.5 -0.5625 C-5.93173028 -1.1869472 -3.49810674 -0.99945907 0 0 Z " fill="#FFFFFF" transform="translate(338,1)"/>
<path d="M0 0 C1.26730957 0.18304688 2.53461914 0.36609375 3.84033203 0.5546875 C7.4583566 1.08485531 11.07330133 1.63191336 14.6875 2.1875 C15.60289551 2.32591309 16.51829102 2.46432617 17.46142578 2.60693359 C19.66567358 2.94752127 21.86439073 3.30956047 24.0625 3.6875 C25.77566406 3.98140625 25.77566406 3.98140625 27.5234375 4.28125 C32.19880161 5.62036663 36.29482217 7.6091318 39.5625 11.3125 C42.8908451 19.8182708 41.45007065 28.99516673 40.39453125 37.83203125 C40.1735804 39.76220345 40.1735804 39.76220345 39.94816589 41.73136902 C39.63644549 44.44263624 39.31696538 47.15284511 38.99194336 49.86254883 C38.58080672 53.29628991 38.19031072 56.73200549 37.80589771 60.16882801 C37.43059256 63.49546805 37.0366024 66.81982551 36.64453125 70.14453125 C36.50892288 71.35849075 36.37331451 72.57245026 36.2335968 73.82319641 C33.64881516 94.92455937 33.64881516 94.92455937 26.8125 101.375 C24.18704346 103.39420587 22.63356788 104.20174622 19.375 105.0625 C16.61523773 105.86716293 16.61523773 105.86716293 15.8984375 107.83984375 C15.44227213 109.35947898 15.00514999 110.88489652 14.58203125 112.4140625 C11.84197775 120.90942487 7.45092385 129.4379395 -0.3125 134.1875 C-7.81251543 137.79410879 -15.45578353 137.638102 -23.625 137.5625 C-24.86701172 137.57410156 -26.10902344 137.58570313 -27.38867188 137.59765625 C-39.01857964 137.56106504 -49.85663318 136.45891348 -58.5 128.0625 C-62.86739576 121.13490673 -63.81655836 113.22517485 -64.3125 105.1875 C-65.0859375 105.01734375 -65.859375 104.8471875 -66.65625 104.671875 C-82.26450124 101.04025219 -82.26450124 101.04025219 -87.3125 95.1875 C-90.61034764 85.29395708 -87.72389686 73.62810834 -86.046875 63.578125 C-85.80928877 62.11619785 -85.57225993 60.65418001 -85.33575439 59.19207764 C-84.84151135 56.15211091 -84.33972756 53.11351307 -83.83251953 50.07568359 C-83.18723357 46.20631432 -82.56258157 42.33393738 -81.94369125 38.46026993 C-81.46000968 35.44915922 -80.96468484 32.44004957 -80.46601105 29.43138885 C-80.23109882 28.00482409 -79.99985958 26.57764888 -79.77257538 25.14984894 C-76.7596865 6.32032161 -76.7596865 6.32032161 -71.05834961 1.13891602 C-67.45632199 -0.10915917 -64.1376452 -0.14859284 -60.37890625 -0.03515625 C-59.62334946 -0.02616806 -58.86779266 -0.01717987 -58.08934021 -0.00791931 C-55.68408258 0.0219883 -53.27984558 0.07174107 -50.875 0.125 C-48.47379468 0.17299034 -46.07286066 0.2163373 -43.67137146 0.24720764 C-42.18085249 0.26680159 -40.69041916 0.29624188 -39.20033264 0.33714294 C-25.69616342 0.53125948 -14.05725254 -2.08061558 0 0 Z M-59.3125 13.1875 C-65.52940689 37.64746155 -68.98146967 62.09401225 -71.3125 87.1875 C-65.53040369 89.18615761 -59.72166034 90.51970506 -53.75 91.8125 C-52.72197266 92.04195313 -51.69394531 92.27140625 -50.63476562 92.5078125 C-49.64025391 92.724375 -48.64574219 92.9409375 -47.62109375 93.1640625 C-46.72189209 93.36080566 -45.82269043 93.55754883 -44.89624023 93.76025391 C-42.31437321 94.18719025 -39.92350214 94.21731432 -37.3125 94.1875 C-36.32508562 86.11408727 -35.35883197 78.03853414 -34.41900349 69.9594574 C-33.98188028 66.20749316 -33.53769666 62.45665647 -33.0769043 58.70751953 C-32.63192884 55.08486881 -32.20611971 51.46041709 -31.79314232 47.83398438 C-31.63281784 46.45540608 -31.46576708 45.0775918 -31.29168129 43.70068359 C-29.95231544 33.07955017 -29.95231544 33.07955017 -33.3125 23.1875 C-35.74720172 21.11731804 -35.74720172 21.11731804 -38.75 19.9375 C-39.80832031 19.46570313 -40.86664063 18.99390625 -41.95703125 18.5078125 C-50.39217074 14.79526478 -50.39217074 14.79526478 -59.3125 13.1875 Z M-3 21.875 C-4.16728638 22.38329346 -4.16728638 22.38329346 -5.3581543 22.90185547 C-9.87038435 25.03443968 -12.21267272 26.46345129 -14.3125 31.1875 C-15.08729315 34.97290686 -15.50296039 38.78167521 -15.91796875 42.62109375 C-16.04690018 43.73178726 -16.1758316 44.84248077 -16.30867004 45.98683167 C-16.57876356 48.33214113 -16.84317588 50.67811089 -17.10229492 53.0246582 C-17.49830999 56.60970072 -17.91063964 60.19256296 -18.32617188 63.77539062 C-18.58689177 66.05718283 -18.84668825 68.33908078 -19.10546875 70.62109375 C-19.22730026 71.69000351 -19.34913177 72.75891327 -19.47465515 73.86021423 C-20.00225352 78.65873014 -20.47273679 83.35083801 -20.3125 88.1875 C-13.23743152 89.09622439 -6.12575121 89.40143672 1 89.5625 C2.28922363 89.61954102 2.28922363 89.61954102 3.60449219 89.67773438 C7.88373712 89.73436899 10.76327395 89.60130995 14.16796875 86.8515625 C17.68636399 83.13133684 18.96481082 80.64902622 19.77246094 75.67797852 C20.05219757 73.98591026 20.05219757 73.98591026 20.33758545 72.25965881 C20.530401 71.04088547 20.72321655 69.82211212 20.921875 68.56640625 C21.12355286 67.31496323 21.32523071 66.0635202 21.53302002 64.77415466 C21.95704662 62.12592798 22.37773517 59.4774008 22.79345703 56.82788086 C23.32666966 53.43496847 23.87835374 50.04535225 24.43502426 46.65622044 C24.96317585 43.41980496 25.47267786 40.18045748 25.984375 36.94140625 C26.18528748 35.72465714 26.38619995 34.50790802 26.59320068 33.25428772 C26.76708313 32.12309006 26.94096558 30.9918924 27.12011719 29.82641602 C27.27841003 28.8317482 27.43670288 27.83708038 27.59979248 26.81227112 C27.6967131 23.91178497 27.31079966 22.56750917 25.6875 20.1875 C16.34848953 15.13498125 6.08473959 17.87782444 -3 21.875 Z M-20.06640625 104.28125 C-20.85272934 104.39223022 -21.63905243 104.50321045 -22.44920349 104.61755371 C-24.9253408 104.96837875 -27.40014166 105.3277752 -29.875 105.6875 C-31.56827797 105.928957 -33.26163682 106.16984746 -34.95507812 106.41015625 C-39.07518145 106.99606884 -43.19411059 107.58966415 -47.3125 108.1875 C-47.19740339 109.60500563 -47.06996342 111.02151169 -46.9375 112.4375 C-46.86789063 113.22640625 -46.79828125 114.0153125 -46.7265625 114.828125 C-46.28675559 117.33419455 -45.67379543 119.04154289 -44.3125 121.1875 C-38.71783738 124.39588259 -33.73297634 124.67746642 -27.375 124.625 C-26.51970703 124.64498047 -25.66441406 124.66496094 -24.78320312 124.68554688 C-18.79687455 124.68098064 -14.28880198 123.5973421 -9.3125 120.1875 C-4.70795094 115.53311816 -3.360491 109.458021 -2.3125 103.1875 C-8.36345048 103.08285754 -14.08560198 103.39851046 -20.06640625 104.28125 Z " fill="#FFFFFF" transform="translate(207.3125,182.8125)"/>
<path d="M0 0 C3.30854818 2.1676695 4.13308454 5.24336633 5 9 C4.92438465 13.31007509 4.4484599 15.39326013 1.875 18.875 C-1.65394764 21.4833526 -3.60918772 22.15406359 -8 22 C-11.32393831 19.86766222 -13.39325823 18.00244292 -15.4375 14.625 C-16.20872803 11.02593587 -15.95330667 8.55901156 -15 5 C-10.31048094 -0.67678623 -7.13423084 -1.52876375 0 0 Z " fill="#FFFFFF" transform="translate(262,149)"/>
<path d="M0 0 C2.36497439 1.86708505 3.66030715 3.32061431 5 6 C5.51202281 10.7425064 5.66711644 14.71913644 3.4375 19 C0.31504833 21.56201163 -2.00119448 22.43876414 -6 23 C-9.27695352 21.58495189 -11.69404917 19.70726271 -14 17 C-15.22668947 12.85410015 -15.45359553 9.15918858 -13.875 5.125 C-9.78030991 0.48435124 -6.1825408 -0.78686883 0 0 Z " fill="#FFFFFF" transform="translate(145,136)"/>
</svg>
